<?xml version="1.0" standalone="no"?>
<!DOCTYPE svg PUBLIC "-//W3C//DTD SVG 20010904//EN"
 "http://www.w3.org/TR/2001/REC-SVG-20010904/DTD/svg10.dtd">
<svg version="1.0" xmlns="http://www.w3.org/2000/svg"
 width="1500.000000pt" height="1500.000000pt" viewBox="0 0 1500.000000 1500.000000"
 preserveAspectRatio="xMidYMid meet">

<g transform="translate(0.000000,1500.000000) scale(0.100000,-0.100000)"
fill="#000000" stroke="none">
<path d="M6860 13311 c0 -4 -35 -13 -77 -20 -43 -6 -96 -16 -118 -22 -22 -5
-56 -14 -75 -19 -57 -13 -199 -71 -250 -101 -8 -5 -25 -13 -37 -19 -13 -5 -23
-14 -23 -20 0 -13 27 -13 35 0 9 15 63 12 72 -4 5 -8 31 -16 63 -19 70 -6 134
-23 138 -36 2 -6 10 -11 18 -11 8 0 14 -7 14 -15 0 -8 7 -15 15 -15 8 0 15 -7
15 -15 0 -8 7 -15 15 -15 8 0 15 -5 15 -11 0 -14 25 -39 39 -39 6 0 11 -13 11
-30 0 -29 2 -30 45 -30 33 0 45 -4 45 -15 0 -8 5 -15 10 -15 6 0 10 -7 10 -15
0 -8 7 -15 15 -15 9 0 15 -9 15 -25 0 -16 6 -25 15 -25 10 0 15 -10 15 -30 0
-20 -5 -30 -15 -30 -10 0 -15 -10 -15 -31 0 -25 -3 -30 -16 -25 -15 6 -16 0
-11 -39 4 -27 3 -45 -3 -45 -14 0 -50 -37 -50 -51 0 -7 -12 -10 -29 -7 -27 4
-30 1 -40 -36 -6 -23 -13 -133 -15 -246 -3 -113 -9 -217 -15 -231 -5 -15 -19
-85 -31 -155 -12 -71 -27 -133 -34 -139 -15 -12 -38 -62 -56 -122 -7 -23 -18
-44 -25 -47 -15 -5 -45 -89 -45 -123 0 -13 -4 -23 -9 -23 -4 0 -21 -10 -37
-22 -15 -13 -44 -28 -64 -33 -30 -9 -36 -16 -40 -45 -4 -29 -10 -36 -32 -38
-16 -2 -30 -11 -33 -23 -4 -10 -12 -19 -19 -19 -7 0 -23 -9 -36 -20 -13 -11
-27 -20 -32 -20 -4 0 -8 -7 -8 -15 0 -8 -4 -15 -10 -15 -5 0 -10 -7 -10 -16 0
-8 -4 -12 -10 -9 -5 3 -10 0 -10 -7 0 -14 -34 -48 -49 -48 -5 0 -11 -6 -14
-14 -3 -7 -19 -16 -36 -19 -22 -5 -31 -12 -31 -26 0 -11 -22 -43 -50 -72 -32
-33 -50 -62 -50 -77 0 -18 -4 -23 -16 -18 -9 3 -22 6 -30 6 -8 0 -14 6 -14 13
0 8 -18 13 -52 14 -28 1 -54 6 -57 11 -3 5 -41 15 -84 22 -64 11 -94 11 -163
0 -46 -6 -84 -16 -84 -20 0 -4 -12 -11 -26 -14 -29 -8 -54 -29 -54 -46 0 -6
-12 -16 -27 -23 -16 -6 -34 -16 -40 -22 -7 -5 -24 -19 -39 -30 -14 -11 -32
-26 -39 -32 -8 -7 -18 -13 -24 -13 -5 0 -16 -9 -25 -21 -8 -12 -22 -19 -33
-17 -20 5 -73 -18 -73 -31 0 -11 -33 -10 -48 2 -11 9 -13 -1 -10 -59 3 -38 10
-103 17 -144 7 -41 17 -106 23 -145 14 -102 51 -297 78 -420 5 -22 16 -76 25
-120 9 -44 21 -98 27 -120 6 -22 15 -58 19 -80 18 -90 73 -303 141 -545 5 -19
16 -60 23 -91 7 -31 19 -74 26 -95 20 -60 17 -253 -5 -347 -26 -108 -69 -157
-241 -278 -55 -38 -232 -149 -239 -149 -3 0 -32 -16 -64 -36 -79 -46 -120 -57
-462 -121 -141 -26 -208 -57 -415 -192 -445 -292 -509 -323 -663 -322 -118 1
-236 -31 -407 -110 -33 -15 -96 -42 -140 -59 -204 -81 -255 -125 -361 -311
-101 -178 -109 -214 -107 -479 1 -193 3 -220 22 -268 12 -29 21 -68 21 -87 0
-26 4 -33 15 -29 22 9 33 -46 11 -58 -14 -8 -16 -27 -14 -138 2 -92 -1 -133
-10 -142 -28 -28 -15 -57 80 -176 51 -64 58 -79 58 -117 0 -43 12 -65 25 -45
9 15 30 12 56 -9 22 -17 22 -21 10 -47 -39 -82 -46 -94 -57 -94 -19 0 -23 -40
-13 -145 5 -55 13 -148 18 -206 5 -59 17 -128 25 -153 9 -26 16 -55 16 -65 0
-10 7 -35 15 -54 8 -20 15 -59 15 -86 0 -27 5 -53 10 -56 6 -4 10 8 10 29 0
19 4 38 10 41 6 3 10 16 10 29 0 36 21 86 35 86 8 0 17 -20 23 -53 29 -158 33
-187 29 -194 -3 -5 -1 -30 5 -57 5 -26 8 -49 5 -52 -2 -2 -17 2 -33 11 -16 8
-34 15 -40 15 -7 0 -15 8 -20 18 -12 26 -22 -128 -15 -224 6 -75 9 -84 41
-120 20 -22 41 -57 47 -79 6 -22 19 -62 28 -90 9 -27 20 -66 25 -85 l8 -35 1
33 c2 68 38 95 60 45 18 -39 -4 -118 -41 -144 -33 -24 -35 -49 -14 -179 17
-102 71 -224 112 -254 9 -7 14 -18 10 -24 -6 -10 0 -46 40 -219 8 -34 14 -84
14 -110 0 -40 9 -64 56 -143 75 -128 117 -217 153 -325 41 -125 87 -307 99
-393 7 -51 24 -102 58 -172 l48 -100 4703 0 c3249 0 4703 3 4703 10 0 6 -9 27
-19 48 -25 48 -46 140 -66 282 -33 228 -57 321 -114 430 -142 275 -151 297
-160 435 -9 136 -31 190 -123 292 -35 39 -82 98 -103 131 -146 222 -210 326
-222 359 -16 43 -46 161 -69 276 -15 70 -20 81 -48 98 -21 13 -50 19 -91 19
-77 1 -142 28 -151 65 -3 14 -1 68 6 119 7 51 10 104 7 118 -4 15 -27 50 -52
79 -45 52 -45 53 -45 128 0 72 -2 79 -40 131 -90 125 -108 175 -125 345 -15
158 -120 445 -287 785 -84 170 -89 198 -64 385 22 161 21 269 -3 320 -10 23
-55 74 -103 120 -78 73 -93 83 -179 113 -122 44 -170 62 -191 73 -10 5 -23 9
-29 9 -6 0 -25 6 -42 14 -18 8 -102 40 -187 71 -160 58 -196 72 -265 98 -22 9
-110 41 -195 72 -85 31 -171 62 -190 70 -19 7 -87 32 -150 55 -118 42 -155 56
-225 83 -22 9 -80 30 -130 47 -49 18 -99 36 -110 40 -11 4 -60 22 -110 40 -49
17 -99 35 -110 40 -11 5 -51 20 -90 34 -38 13 -108 38 -155 55 -203 75 -494
175 -540 185 -46 10 -90 45 -121 96 -31 50 -75 90 -101 90 -7 0 -26 11 -41 25
-22 21 -27 35 -27 71 0 43 62 249 81 269 5 5 9 15 9 23 0 8 6 28 14 45 8 18
31 75 51 127 21 52 42 100 46 106 6 7 75 14 187 18 217 9 323 22 382 50 50 24
96 83 105 137 6 34 5 36 -23 36 -16 0 -42 9 -58 20 l-28 21 -58 -39 c-31 -21
-67 -39 -80 -39 -28 0 -126 64 -136 88 -8 22 -46 80 -72 110 -11 13 -20 29
-20 36 0 7 -13 25 -30 41 -16 16 -30 35 -30 42 0 8 -21 34 -47 60 -27 25 -55
58 -63 73 -8 15 -33 52 -56 81 -22 30 -51 74 -65 99 -13 25 -34 56 -47 70 -12
14 -36 46 -53 73 -21 32 -38 47 -52 47 -17 0 -30 15 -54 63 -18 35 -33 68 -33
73 0 6 -8 26 -17 45 -10 19 -20 57 -24 84 -4 28 -14 82 -22 120 -9 39 -19 126
-22 195 -7 166 -13 205 -36 268 -10 29 -19 70 -19 90 0 21 -4 42 -8 48 -5 5
-17 38 -26 74 -10 36 -31 103 -46 150 -16 47 -41 155 -55 240 -15 85 -42 202
-61 260 -51 153 -61 195 -99 404 -21 119 -25 169 -25 340 1 216 6 258 69 581
25 127 130 315 224 403 26 23 50 42 54 42 5 0 27 17 49 38 45 41 146 81 210
83 22 1 4 5 -41 10 -44 5 -93 14 -110 20 -16 5 -91 14 -165 19 -200 14 -260
21 -260 31 0 5 -56 9 -125 9 -69 0 -125 -4 -125 -9z m-1195 -5131 c3 -5 1 -10
-4 -10 -6 0 -11 5 -11 10 0 6 2 10 4 10 3 0 8 -4 11 -10z m109 -65 c3 -9 0
-15 -8 -15 -8 0 -16 7 -20 15 -3 9 0 15 8 15 8 0 16 -7 20 -15z m139 -176 c9
-10 17 -23 17 -29 0 -5 6 -10 13 -10 7 0 20 -9 30 -20 20 -24 37 -26 37 -5 0
8 9 15 20 15 21 0 28 -24 10 -35 -7 -4 -7 -13 0 -26 9 -15 15 -17 30 -9 25 13
70 -7 70 -31 0 -24 33 -41 64 -33 18 4 27 1 36 -15 6 -12 19 -21 29 -21 10 0
24 -7 31 -15 7 -8 19 -15 26 -15 8 0 14 -4 14 -9 0 -11 43 -18 185 -31 63 -6
125 -17 145 -27 44 -21 115 -94 141 -144 11 -22 24 -39 29 -39 6 0 10 -16 10
-35 0 -25 4 -35 16 -35 12 0 15 -6 10 -25 -8 -30 39 -122 66 -131 33 -10 159
62 215 124 29 31 53 60 53 64 0 11 112 201 131 223 10 11 28 34 41 52 61 84
113 148 142 174 34 31 66 38 66 14 0 -24 38 -81 44 -64 2 8 12 42 23 76 13 45
23 63 35 63 9 0 19 -4 23 -9 3 -5 18 -12 34 -16 16 -3 35 -13 42 -22 7 -8 24
-72 37 -141 18 -102 25 -182 32 -402 8 -278 22 -488 40 -636 10 -77 7 -114
-10 -114 -10 0 -32 27 -85 105 -111 162 -187 237 -293 288 -75 35 -198 56
-239 41 -25 -9 -28 -15 -26 -51 2 -50 -14 -60 -59 -37 -17 9 -44 14 -59 12
-19 -3 -29 0 -29 8 0 8 -18 12 -57 12 -45 0 -67 -6 -96 -25 -37 -23 -38 -25
-22 -44 19 -20 14 -25 -35 -31 -17 -2 -25 -9 -25 -23 0 -11 -2 -19 -5 -18 -3
1 -13 5 -24 9 -10 4 -27 2 -38 -5 -30 -19 -49 -6 -108 71 -30 39 -78 99 -105
132 -80 96 -260 337 -308 412 -56 90 -62 104 -37 104 10 0 21 4 25 10 6 10
-92 111 -165 170 -106 86 -210 185 -210 200 0 4 -9 10 -20 13 -11 3 -20 10
-20 16 0 15 37 -3 63 -30z m1162 -1019 c8 -13 -79 -55 -99 -47 -22 9 -20 27 2
27 10 0 27 7 38 15 22 17 50 19 59 5z m279 -6 c33 -13 22 -20 -120 -79 -18 -8
-41 -11 -51 -9 -11 3 -39 1 -62 -6 -31 -8 -41 -16 -41 -32 0 -17 4 -19 28 -13
56 14 103 17 115 7 9 -8 30 -2 75 20 94 44 131 20 42 -28 -40 -22 -90 -65 -90
-79 0 -24 126 38 212 103 37 29 70 52 73 52 14 0 2 -23 -27 -48 -17 -15 -51
-46 -74 -69 -50 -49 -118 -87 -145 -80 -11 3 -22 1 -25 -4 -3 -6 -14 -7 -24
-4 -30 10 -109 -15 -115 -36 -10 -31 -23 -12 -16 23 5 27 15 37 58 58 50 24
64 42 43 55 -5 3 -32 -6 -60 -20 -35 -18 -50 -31 -48 -43 2 -12 -5 -18 -25
-20 -19 -2 -31 -11 -38 -29 -6 -17 -13 -23 -20 -16 -11 11 12 63 36 83 24 20
17 30 -19 30 -28 0 -35 -4 -38 -22 -2 -18 -9 -22 -27 -20 -32 3 -38 9 -23 24
7 7 12 20 12 30 0 16 -6 17 -39 12 -46 -7 -57 5 -37 43 16 33 81 62 99 44 7
-7 6 -16 -6 -29 -16 -18 -23 -42 -12 -42 16 0 66 33 79 51 8 12 27 30 42 40
25 16 30 16 65 2 36 -14 40 -14 65 6 15 12 35 21 44 21 10 0 23 7 30 15 13 16
38 19 64 9z m-174 -8 c0 -9 -30 -14 -35 -6 -4 6 3 10 14 10 12 0 21 -2 21 -4z
m230 -35 c0 -6 -4 -13 -10 -16 -5 -3 -10 1 -10 9 0 9 5 16 10 16 6 0 10 -4 10
-9z m90 -181 c0 -5 -4 -10 -10 -10 -5 0 -10 5 -10 10 0 6 5 10 10 10 6 0 10
-4 10 -10z m-30 -18 c0 -11 -67 -99 -103 -134 -15 -16 -37 -28 -47 -28 -15 0
-20 -7 -20 -24 0 -32 -10 -37 -50 -30 -29 6 -31 10 -26 35 5 28 4 29 -34 29
-44 0 -57 23 -20 35 15 5 19 12 15 25 -5 14 4 21 41 34 26 8 50 13 55 10 18
-11 8 -34 -21 -49 -20 -10 -27 -20 -23 -31 3 -8 11 -13 17 -10 46 19 66 33 66
44 0 19 20 36 67 61 23 11 44 25 48 31 7 12 35 13 35 2z m10 -131 c0 -14 -73
-81 -87 -81 -21 0 -26 -23 -8 -36 17 -12 16 -14 -9 -24 -37 -14 -93 -13 -102
2 -4 6 -3 13 3 15 6 2 22 13 35 24 12 10 34 28 48 39 14 12 39 32 55 45 30 25
65 33 65 16z m240 -43 c93 -93 110 -130 131 -287 6 -42 16 -119 24 -171 7 -52
22 -130 33 -172 20 -72 42 -259 42 -352 0 -36 -1 -38 -17 -24 -10 9 -29 19
-43 23 -31 9 -42 25 -29 41 7 9 2 16 -18 26 -17 8 -32 26 -39 47 -6 19 -18 40
-28 46 -9 7 -16 16 -16 21 0 8 -9 18 -67 78 -24 24 -32 81 -11 74 6 -2 15 -12
20 -21 4 -9 12 -25 17 -34 10 -22 51 -30 51 -11 0 22 -40 130 -73 197 -7 14
-18 26 -25 29 -11 3 -12 0 -3 -16 15 -28 14 -32 -9 -32 -24 0 -28 -35 -5 -44
20 -7 19 -32 -1 -40 -14 -5 -15 -16 -9 -69 l7 -62 -26 24 c-14 13 -28 36 -31
52 -4 16 -11 29 -17 29 -6 0 -29 19 -52 43 -37 38 -41 46 -39 87 1 25 0 64 -3
88 -5 37 -8 41 -20 31 -12 -9 -13 -25 -8 -66 8 -64 -8 -71 -34 -15 -9 20 -23
41 -29 45 -18 11 -16 47 2 47 8 0 15 -4 15 -10 0 -5 5 -10 10 -10 7 0 7 6 0
20 -6 11 -17 20 -25 20 -9 0 -15 9 -15 23 0 12 -1 33 -2 47 -2 17 2 25 12 25
9 0 16 -11 18 -26 3 -21 7 -25 27 -21 20 3 24 -1 27 -24 4 -32 28 -46 28 -15
0 11 -4 23 -10 26 -5 3 -10 14 -10 24 0 10 -9 21 -21 24 -11 3 -23 14 -26 25
-3 13 -11 18 -23 15 -14 -4 -19 3 -23 29 -6 40 7 58 22 29 16 -29 31 -26 31 5
0 24 2 25 39 19 25 -4 41 -2 46 5 8 13 45 -16 45 -35 0 -18 24 -35 37 -27 6 4
16 59 23 122 13 134 17 150 34 150 7 0 37 -24 66 -52z m-495 -78 c3 -5 -1 -10
-10 -10 -9 0 -13 5 -10 10 3 6 8 10 10 10 2 0 7 -4 10 -10z m255 -15 c0 -9 -9
-15 -25 -15 -26 0 -34 15 -12 23 23 10 37 7 37 -8z m-140 -197 c0 -45 -16 -32
-18 15 -2 31 0 38 8 27 5 -8 10 -27 10 -42z m402 -528 c20 0 22 -8 8 -30 -13
-21 -44 -1 -48 31 -3 19 -1 22 9 12 7 -7 21 -13 31 -13z m68 -122 c0 -12 -25
-9 -38 4 -7 7 -12 18 -12 25 0 11 6 9 25 -4 13 -10 25 -21 25 -25z m30 2 c0
-5 -4 -10 -10 -10 -5 0 -10 5 -10 10 0 6 5 10 10 10 6 0 10 -4 10 -10z m0 -60
c0 -5 9 -10 19 -10 27 0 34 -15 21 -40 -9 -17 -14 -19 -26 -9 -8 6 -14 20 -14
30 0 11 -7 19 -15 19 -8 0 -15 5 -15 10 0 6 7 10 15 10 8 0 15 -4 15 -10z
m-2742 -1589 c44 -23 95 -75 148 -151 20 -30 72 -89 114 -130 43 -42 87 -94
98 -115 11 -22 47 -70 79 -106 75 -85 167 -198 171 -210 2 -5 -1 -9 -7 -9 -6
0 -28 -19 -50 -41 -22 -23 -44 -39 -49 -35 -5 3 -12 23 -16 44 -13 82 -74 118
-217 127 -41 2 -82 7 -90 10 -8 3 -36 41 -64 85 -55 89 -115 178 -159 240 -27
38 -28 43 -16 80 12 35 10 44 -14 104 -31 78 -32 101 -8 115 25 15 38 13 80
-8z m-2282 -96 c-6 -17 -26 -20 -26 -5 0 16 24 40 28 29 2 -5 1 -16 -2 -24z
m7017 -894 c52 -10 108 -26 125 -35 17 -9 71 -26 119 -37 80 -19 182 -55 225
-79 10 -6 26 -10 37 -10 10 0 48 -13 83 -29 119 -53 291 -250 338 -386 25 -74
34 -143 20 -161 -7 -7 -25 -40 -40 -71 -58 -121 -122 -187 -212 -219 -63 -22
-87 -19 -94 14 -3 15 -7 33 -10 40 -5 16 -203 17 -239 0 -19 -8 -31 -8 -50 0
-27 13 -32 42 -15 86 5 14 7 33 3 42 -6 16 -25 16 -120 -2 -40 -8 -40 -8 -83
181 -18 77 -46 176 -61 220 -16 44 -44 128 -64 185 -57 172 -79 220 -114 241
-17 10 -31 23 -31 29 0 16 79 12 183 -9z"/>
<path d="M7456 6281 c-3 -4 1 -17 9 -27 14 -18 14 -18 15 9 0 26 -13 36 -24
18z"/>
<path d="M7632 6059 c2 -7 10 -15 17 -17 8 -3 12 1 9 9 -2 7 -10 15 -17 17 -8
3 -12 -1 -9 -9z"/>
<path d="M7580 6026 c0 -9 7 -16 16 -16 9 0 14 5 12 12 -6 18 -28 21 -28 4z"/>
<path d="M7530 5977 c0 -13 14 -36 30 -52 l30 -29 0 30 c0 34 -7 44 -37 62
-21 11 -23 10 -23 -11z"/>
<path d="M7805 11916 c-91 -29 -182 -100 -254 -199 -80 -110 -79 -183 2 -111
67 59 89 74 112 74 23 0 105 27 120 40 5 4 26 10 46 11 39 4 93 -26 156 -86
81 -77 99 -84 153 -60 38 17 38 17 104 -15 42 -20 74 -29 87 -25 68 22 22 190
-75 272 -41 35 -158 88 -224 102 -69 14 -176 13 -227 -3z"/>
<path d="M8955 11780 c-124 -25 -198 -96 -270 -257 -19 -43 -25 -70 -21 -89 7
-26 7 -26 27 -8 16 15 23 16 37 6 46 -33 53 -29 77 54 21 68 41 86 105 87 43
2 55 -2 71 -22 27 -33 24 -48 -12 -56 -48 -11 -99 -61 -99 -99 0 -45 34 -95
78 -112 20 -8 45 -19 54 -24 10 -6 24 -10 32 -10 17 0 66 56 66 75 0 7 12 28
26 45 30 35 29 1 4 305 -5 61 -9 111 -9 113 -2 5 -129 -1 -166 -8z"/>
<path d="M7790 11529 c-47 -19 -80 -60 -80 -98 0 -30 6 -40 34 -58 52 -34 79
-37 155 -17 l71 18 0 59 c0 48 -4 62 -25 82 -20 21 -34 25 -77 24 -29 0 -64
-5 -78 -10z"/>
<path d="M9142 10825 c-18 -35 -32 -67 -32 -70 0 -25 -174 -245 -194 -245 -7
0 -17 5 -24 12 -15 15 -15 13 -16 -91 -1 -108 -10 -115 -152 -131 -101 -12
-101 -12 -153 16 -29 15 -75 29 -102 32 -42 4 -55 0 -95 -27 -65 -42 -74 -41
-74 15 l0 45 -30 -28 c-38 -36 -56 -107 -70 -277 -12 -150 -12 -149 77 -191
90 -43 45 -58 -92 -31 -38 7 -90 21 -115 31 -64 25 -155 31 -184 11 -21 -13
-24 -22 -22 -70 2 -63 15 -82 85 -122 25 -15 73 -52 106 -84 68 -65 174 -135
222 -145 47 -10 181 27 293 81 167 81 220 89 220 33 0 -30 -105 -337 -121
-353 -5 -6 -9 -17 -9 -25 0 -11 4 -9 13 6 6 12 31 53 54 90 22 38 56 95 74
128 18 33 42 76 54 95 31 50 105 204 105 219 0 7 7 43 14 80 8 36 22 102 31
146 28 141 38 180 51 200 8 11 14 30 14 42 0 12 7 44 15 70 28 88 69 236 83
298 9 38 16 305 9 305 -2 0 -18 -29 -35 -65z m-362 -735 c6 -11 15 -18 20 -15
4 3 18 -10 30 -30 18 -29 20 -43 14 -97 -3 -35 -12 -77 -19 -95 -13 -31 -14
-31 -75 -27 -34 2 -93 -3 -131 -11 -94 -20 -122 -19 -172 6 l-42 22 45 36 c24
20 78 70 119 112 62 62 85 78 123 87 26 7 50 16 53 22 10 16 23 12 35 -10z
m-376 -350 c33 -12 33 -30 1 -30 -27 0 -95 25 -95 34 0 10 67 7 94 -4z m221
-10 c3 -5 -3 -10 -15 -10 -12 0 -18 5 -15 10 3 6 10 10 15 10 5 0 12 -4 15
-10z"/>
</g>
</svg>
